<svg width="34" height="34" viewBox="0 0 34 34" fill="none" xmlns="http://www.w3.org/2000/svg">
<path fill-rule="evenodd" clip-rule="evenodd" d="M6.00421 6.00421C6.64719 5.36122 7.51926 5 8.42857 5C9.33789 5 10.21 5.36122 10.8529 6.00421C11.4959 6.64719 11.8571 7.51926 11.8571 8.42857C11.8571 9.33789 11.4959 10.21 10.8529 10.8529C10.21 11.4959 9.33789 11.8571 8.42857 11.8571C7.51926 11.8571 6.64719 11.4959 6.00421 10.8529C5.36122 10.21 5 9.33789 5 8.42857C5 7.51926 5.36122 6.64719 6.00421 6.00421ZM28.4979 5.5021C29.1674 6.17157 29.1674 7.257 28.4979 7.92647L7.92647 28.4979C7.257 29.1674 6.17157 29.1674 5.5021 28.4979C4.83263 27.8284 4.83263 26.743 5.5021 26.0735L26.0735 5.5021C26.743 4.83263 27.8284 4.83263 28.4979 5.5021ZM23.1471 23.1471C23.79 22.5041 24.6621 22.1429 25.5714 22.1429C26.4807 22.1429 27.3528 22.5041 27.9958 23.1471C28.6388 23.79 29 24.6621 29 25.5714C29 26.4807 28.6388 27.3528 27.9958 27.9958C27.3528 28.6388 26.4807 29 25.5714 29C24.6621 29 23.79 28.6388 23.1471 27.9958C22.5041 27.3528 22.1429 26.4807 22.1429 25.5714C22.1429 24.6621 22.5041 23.79 23.1471 23.1471Z" fill="#2C2B46"/>
</svg>
