<svg width="34" height="34" viewBox="0 0 34 34" fill="none" xmlns="http://www.w3.org/2000/svg">
<path fill-rule="evenodd" clip-rule="evenodd" d="M2 1.7C2 0.761116 2.74619 0 3.66667 0H7C7.92047 0 8.66666 0.761116 8.66666 1.7V3.5171L30.4521 5.10432C30.9133 5.13793 31.3402 5.36551 31.6305 5.73264C31.9209 6.09978 32.0486 6.57346 31.9832 7.04042L30.3166 18.9404C30.1993 19.7779 29.4961 20.4 28.6667 20.4H8.66666V23.8H25.3333C26.6594 23.8 27.9312 24.3373 28.8689 25.2938C29.8065 26.2502 30.3333 27.5474 30.3333 28.9C30.3333 30.2526 29.8065 31.5498 28.8689 32.5062C27.9312 33.4627 26.6594 34 25.3333 34C24.0072 34 22.7355 33.4627 21.7978 32.5062C20.8601 31.5498 20.3333 30.2526 20.3333 28.9C20.3333 28.3153 20.4318 27.7409 20.6193 27.2H11.714C11.9016 27.7409 12 28.3153 12 28.9C12 30.2526 11.4732 31.5498 10.5355 32.5062C9.59785 33.4627 8.32608 34 7 34C5.67392 34 4.40215 33.4627 3.46447 32.5062C2.52678 31.5498 2 30.2526 2 28.9C2 27.5474 2.52678 26.2502 3.46447 25.2938C3.99681 24.7508 4.63683 24.3429 5.33333 24.0917V5.11755C5.33324 5.10704 5.33324 5.09651 5.33333 5.08596V3.4H3.66667C2.74619 3.4 2 2.63888 2 1.7ZM8.66666 6.92576V17H27.2212L28.4305 8.36569L8.66666 6.92576ZM7 27.2C6.55797 27.2 6.13405 27.3791 5.82149 27.6979C5.50893 28.0167 5.33333 28.4491 5.33333 28.9C5.33333 29.3509 5.50893 29.7833 5.82149 30.1021C6.13405 30.4209 6.55797 30.6 7 30.6C7.44203 30.6 7.86595 30.4209 8.17851 30.1021C8.49107 29.7833 8.66666 29.3509 8.66666 28.9C8.66666 28.4491 8.49107 28.0167 8.17851 27.6979C7.86595 27.3791 7.44203 27.2 7 27.2ZM25.3333 27.2C24.8913 27.2 24.4674 27.3791 24.1548 27.6979C23.8423 28.0167 23.6667 28.4491 23.6667 28.9C23.6667 29.3509 23.8423 29.7833 24.1548 30.1021C24.4674 30.4209 24.8913 30.6 25.3333 30.6C25.7754 30.6 26.1993 30.4209 26.5118 30.1021C26.8244 29.7833 27 29.3509 27 28.9C27 28.4491 26.8244 28.0167 26.5118 27.6979C26.1993 27.3791 25.7754 27.2 25.3333 27.2Z" fill="#2C2B46"/>
</svg>
