<svg width="34" height="34" viewBox="0 0 34 34" fill="none" xmlns="http://www.w3.org/2000/svg">
<path d="M11.8571 4.99888H8.42857C7.51926 4.99888 6.64719 5.36011 6.00421 6.00309C5.36122 6.64607 5 7.51814 5 8.42746V28.9989C5 29.9082 5.36122 30.7803 6.00421 31.4232C6.64719 32.0662 7.51926 32.4275 8.42857 32.4275H25.5714C26.4807 32.4275 27.3528 32.0662 27.9958 31.4232C28.6388 30.7803 29 29.9082 29 28.9989V8.42746C29 7.51814 28.6388 6.64607 27.9958 6.00309C27.3528 5.36011 26.4807 4.99888 25.5714 4.99888H22.1429M11.8571 4.99888C11.8571 4.08957 12.2184 3.2175 12.8613 2.57452C13.5043 1.93154 14.3764 1.57031 15.2857 1.57031H18.7143C19.6236 1.57031 20.4957 1.93154 21.1387 2.57452C21.7816 3.2175 22.1429 4.08957 22.1429 4.99888M11.8571 4.99888C11.8571 5.9082 12.2184 6.78027 12.8613 7.42325C13.5043 8.06623 14.3764 8.42746 15.2857 8.42746H18.7143C19.6236 8.42746 20.4957 8.06623 21.1387 7.42325C21.7816 6.78027 22.1429 5.9082 22.1429 4.99888" stroke="#2C2B46" stroke-width="2" stroke-linecap="round" stroke-linejoin="round"/>
<path fill-rule="evenodd" clip-rule="evenodd" d="M11.8555 14.4275C11.8555 13.9541 12.2688 13.5703 12.7786 13.5703H22.9324C23.4422 13.5703 23.8555 13.9541 23.8555 14.4275C23.8555 14.9008 23.4422 15.2846 22.9324 15.2846H19.2401C19.6505 15.7927 19.9336 16.3786 20.0699 16.9989H22.9324C23.4422 16.9989 23.8555 17.3826 23.8555 17.856C23.8555 18.3294 23.4422 18.7132 22.9324 18.7132H20.0699C19.8903 19.5304 19.456 20.2879 18.8114 20.8865C17.9458 21.6902 16.7719 22.1417 15.5478 22.1417H15.0071L18.9697 25.8214C19.3302 26.1561 19.3302 26.6988 18.9697 27.0335C18.6092 27.3683 18.0248 27.3683 17.6643 27.0335L12.1259 21.8907C11.8619 21.6455 11.7829 21.2769 11.9258 20.9566C12.0686 20.6363 12.4052 20.4275 12.7786 20.4275H15.5478C16.2822 20.4275 16.9866 20.1565 17.5059 19.6743C17.8008 19.4005 18.0223 19.0714 18.1586 18.7132H12.7786C12.2688 18.7132 11.8555 18.3294 11.8555 17.856C11.8555 17.3826 12.2688 16.9989 12.7786 16.9989H18.1586C18.0223 16.6407 17.8008 16.3115 17.5059 16.0378C16.9866 15.5555 16.2822 15.2846 15.5478 15.2846H12.7786C12.2688 15.2846 11.8555 14.9008 11.8555 14.4275Z" fill="#2C2B46"/>
</svg>
