<svg width="34" height="34" viewBox="0 0 34 34" fill="none" xmlns="http://www.w3.org/2000/svg">
<path fill-rule="evenodd" clip-rule="evenodd" d="M3.40023 7.8482V26.5521C5.29629 25.8322 7.31094 25.4594 9.35013 25.4594C11.3893 25.4594 13.404 25.8322 15.3 26.5521V7.8482C13.45 6.93346 11.4158 6.45529 9.35013 6.45529C7.28443 6.45529 5.25022 6.93346 3.40023 7.8482ZM18.7 7.8482V26.5521C20.596 25.8322 22.6107 25.4594 24.6499 25.4594C26.6891 25.4594 28.7037 25.8322 30.5998 26.5521V7.8482C28.7498 6.93346 26.7156 6.45529 24.6499 6.45529C22.5842 6.45529 20.55 6.93346 18.7 7.8482ZM33.9997 6.84398V29.2402C34.0012 29.3217 33.997 29.4035 33.987 29.4851C33.8838 30.3389 33.1677 31 32.2997 31C31.9617 31 31.6468 30.8997 31.3821 30.7269C29.3312 29.5395 27.0111 28.9147 24.6499 28.9147C22.2886 28.9147 19.9685 29.5395 17.9177 30.7269C17.653 30.8997 17.338 31 17 31C16.662 31 16.347 30.8997 16.0823 30.7269C14.0315 29.5395 11.7114 28.9147 9.35013 28.9147C6.98888 28.9147 4.66879 29.5395 2.61793 30.7269C2.35323 30.8997 2.03826 31 1.70026 31C0.832176 31 0.116065 30.3387 0.0130133 29.4848C0.00300894 29.4033 -0.00117968 29.3216 0.000283872 29.2402V6.84395C-0.0106614 6.23585 0.295299 5.64023 0.85027 5.31461C3.43455 3.79828 6.36605 3 9.35013 3C12.0116 3 14.6312 3.635 17 4.84808C19.3688 3.635 21.9884 3 24.6499 3C27.6339 3 30.5655 3.79828 33.1497 5.31461C33.7047 5.64024 34.0107 6.23587 33.9997 6.84398Z" fill="#2C2B46"/>
</svg>
