<svg width="34" height="34" viewBox="0 0 34 34" fill="none" xmlns="http://www.w3.org/2000/svg">
<path fill-rule="evenodd" clip-rule="evenodd" d="M12.8005 2.07738C13.574 2.33936 13.992 3.18886 13.7342 3.9748L12.4136 8.00056H21.1113L19.7907 3.9748C19.5329 3.18886 19.9509 2.33936 20.7244 2.07738C21.4978 1.81541 22.3339 2.24016 22.5917 3.02609L24.2235 8.00056H27.0949C27.7334 8.00051 28.3645 8.14074 28.9447 8.41165C29.5249 8.68258 30.0406 9.0778 30.4564 9.57021C30.8722 10.0626 31.1783 10.6406 31.3538 11.2645C31.5292 11.8883 31.5697 12.5434 31.4727 13.1847L31.4677 13.2156L31.1503 15.0561C31.0096 15.8721 30.2445 16.4177 29.4414 16.2748C28.6383 16.1318 28.1014 15.3544 28.2421 14.5383L28.5564 12.7159C28.5863 12.5062 28.5722 12.2924 28.5148 12.0886C28.4564 11.8806 28.3543 11.688 28.2157 11.5239C28.0771 11.3597 27.9052 11.228 27.7118 11.1377C27.5184 11.0474 27.3081 11.0006 27.0952 11.0006H25.2077L25.5442 12.0263C25.802 12.8123 25.384 13.6618 24.6105 13.9237C23.837 14.1857 23.001 13.761 22.7432 12.975L22.0955 11.0006H11.4294L10.7817 12.975C10.5239 13.761 9.68787 14.1857 8.9144 13.9237C8.14093 13.6618 7.72291 12.8123 7.98074 12.0263L8.31721 11.0006H6.42909C6.21624 11.0006 6.00572 11.0474 5.81232 11.1377C5.61891 11.228 5.44701 11.3597 5.3084 11.5239C5.16979 11.688 5.06776 11.8806 5.00929 12.0886C4.952 12.2924 4.93786 12.5061 4.96774 12.7157L6.81727 23.4257L6.82233 23.457C6.92953 24.1652 7.2827 24.8112 7.81794 25.2778C8.35316 25.7444 9.03508 26.001 9.74031 26.001H15.2851C16.1004 26.001 16.7613 26.6726 16.7613 27.5011C16.7613 28.3295 16.1004 29.0011 15.2851 29.0011H9.74031C8.3298 29.001 6.96584 28.4879 5.89537 27.5547C4.82911 26.625 4.12412 25.3397 3.90671 23.9297L2.05652 13.2159L2.05146 13.1847C1.9544 12.5434 1.99497 11.8883 2.17038 11.2645C2.3458 10.6406 2.65191 10.0626 3.06773 9.57021C3.48356 9.0778 3.99926 8.68258 4.57948 8.41165C5.15964 8.14074 8.5682 8.09786 9.30137 8.00056M9.30137 8.00056L10.9332 3.02609C11.1911 2.24016 12.0271 1.81541 12.8005 2.07738M16.4402 14.0126C17.111 13.9629 17.7841 14.0691 18.4084 14.3231C19.0328 14.577 19.592 14.9722 20.0437 15.4785C20.5913 16.0923 20.5455 17.0409 19.9414 17.5973C19.3374 18.1537 18.4038 18.1072 17.8562 17.4934C17.7057 17.3246 17.5192 17.1929 17.3111 17.1082C17.103 17.0236 16.8786 16.9882 16.655 17.0048C16.4314 17.0213 16.2145 17.0894 16.0207 17.2039C15.8269 17.3184 15.6612 17.4762 15.5364 17.6654C15.4115 17.8546 15.3307 18.0702 15.3001 18.2958C15.2694 18.5215 15.2898 18.7513 15.3595 18.9677C15.4293 19.1842 15.5467 19.3817 15.7028 19.5452C15.8589 19.7087 16.0496 19.834 16.2604 19.9115C17.0271 20.1932 17.4239 21.0532 17.1466 21.8322C16.8693 22.6113 16.023 23.0145 15.2563 22.7327C14.6238 22.5003 14.0518 22.1246 13.5835 21.634C13.1152 21.1435 12.7631 20.551 12.5537 19.9016C12.3444 19.2522 12.2834 18.5628 12.3753 17.8858C12.4672 17.2089 12.7096 16.562 13.0842 15.9945C13.4588 15.4269 13.9557 14.9534 14.5371 14.6101C15.1186 14.2667 15.7694 14.0624 16.4402 14.0126ZM21.4445 20.2582C22.5519 19.133 24.0538 18.5008 25.6199 18.5008C27.186 18.5008 28.688 19.133 29.7954 20.2582C30.9028 21.3835 31.5249 22.9096 31.5249 24.501C31.5249 25.5819 31.2379 26.6328 30.7067 27.5483L32.5676 29.4393C33.1441 30.0251 33.1441 30.9748 32.5676 31.5607C31.9911 32.1465 31.0564 32.1465 30.4799 31.5607L28.6189 29.6697C27.7179 30.2095 26.6837 30.5011 25.6199 30.5011C24.0538 30.5011 22.5519 29.869 21.4445 28.7437C20.3371 27.6185 19.7149 26.0923 19.7149 24.501C19.7149 22.9096 20.3371 21.3835 21.4445 20.2582ZM25.6199 21.5009C24.8369 21.5009 24.0859 21.817 23.5322 22.3796C22.9785 22.9422 22.6674 23.7053 22.6674 24.501C22.6674 25.2967 22.9785 26.0597 23.5322 26.6224C24.0859 27.185 24.8369 27.5011 25.6199 27.5011C26.403 27.5011 27.154 27.185 27.7077 26.6224C28.2614 26.0597 28.5724 25.2967 28.5724 24.501C28.5724 23.7053 28.2614 22.9422 27.7077 22.3796C27.154 21.817 26.403 21.5009 25.6199 21.5009Z" fill="#2C2B46"/>
</svg>
