<svg width="34" height="34" viewBox="0 0 34 34" fill="none" xmlns="http://www.w3.org/2000/svg">
<path fill-rule="evenodd" clip-rule="evenodd" d="M3 2.57143C3 1.70355 3.68335 1 4.52632 1H7.57895C8.42191 1 9.10526 1.70355 9.10526 2.57143V4.2511L29.0561 5.71828C29.4785 5.74934 29.8694 5.95971 30.1353 6.29908C30.4012 6.63845 30.5182 7.07631 30.4583 7.50795L28.932 18.5079C28.8246 19.2821 28.1806 19.8571 27.4211 19.8571H9.10526V23H17.5C18.343 23 19.0263 23.7036 19.0263 24.5714C19.0263 25.4393 18.343 26.1429 17.5 26.1429H11.896C12.0677 26.6429 12.1579 27.1738 12.1579 27.7143C12.1579 28.9646 11.6755 30.1637 10.8168 31.0478C9.95803 31.9319 8.79336 32.4286 7.57895 32.4286C6.36453 32.4286 5.19986 31.9319 4.34114 31.0478C3.48242 30.1637 3 28.9646 3 27.7143C3 26.464 3.48242 25.2649 4.34114 24.3808C4.82866 23.8789 5.41478 23.5018 6.05263 23.2696V5.73051C6.05254 5.72079 6.05254 5.71106 6.05263 5.70131V4.14286H4.52632C3.68335 4.14286 3 3.4393 3 2.57143ZM9.10526 7.40196V16.7143H26.0973L27.2047 8.73299L9.10526 7.40196ZM7.57895 26.1429C7.17414 26.1429 6.78592 26.3084 6.49968 26.6031C6.21344 26.8978 6.05263 27.2975 6.05263 27.7143C6.05263 28.1311 6.21344 28.5308 6.49968 28.8255C6.78592 29.1202 7.17414 29.2857 7.57895 29.2857C7.98375 29.2857 8.37198 29.1202 8.65822 28.8255C8.94446 28.5308 9.10526 28.1311 9.10526 27.7143C9.10526 27.2975 8.94446 26.8978 8.65822 26.6031C8.37198 26.3084 7.98375 26.1429 7.57895 26.1429ZM22.0789 24.5714C22.0789 23.7036 22.7623 23 23.6053 23H30.4737C31.3166 23 32 23.7036 32 24.5714V31.6429C32 32.5107 31.3166 33.2143 30.4737 33.2143C29.6307 33.2143 28.9474 32.5107 28.9474 31.6429V28.3652L23.9214 33.5397C23.3253 34.1534 22.3589 34.1534 21.7628 33.5397C21.1668 32.9261 21.1668 31.9311 21.7628 31.3174L26.7888 26.1429H23.6053C22.7623 26.1429 22.0789 25.4393 22.0789 24.5714Z" fill="#2C2B46"/>
</svg>
