<svg width="34" height="34" viewBox="0 0 34 34" fill="none" xmlns="http://www.w3.org/2000/svg">
<path fill-rule="evenodd" clip-rule="evenodd" d="M16.2374 1.20548C16.7109 0.931507 17.2891 0.931507 17.7626 1.20548L30.2071 8.40548C30.6969 8.68887 31 9.22196 31 9.8V24.2C31 24.778 30.6969 25.3111 30.2071 25.5945L17.7626 32.7945C17.2891 33.0685 16.7109 33.0685 16.2374 32.7945L3.79293 25.5945C3.30312 25.3111 3 24.778 3 24.2V9.8C3 9.22196 3.30312 8.68887 3.79293 8.40548L16.2374 1.20548ZM6.11111 12.5358L15.4444 17.9358V28.6642L6.11111 23.2642V12.5358ZM18.5556 28.6642L27.8889 23.2642V12.5358L18.5556 17.9358V28.6642ZM17 15.1642L26.2715 9.8L17 4.43576L7.72847 9.8L17 15.1642Z" fill="#5EB852"/>
</svg>
