<svg width="17" height="20" viewBox="0 0 17 20" fill="none" xmlns="http://www.w3.org/2000/svg">
<path fill-rule="evenodd" clip-rule="evenodd" d="M8.03698 0.128424C8.32448 -0.0428082 8.67552 -0.0428082 8.96302 0.128424L16.5186 4.62842C16.816 4.80554 17 5.13873 17 5.5V14.5C17 14.8613 16.816 15.1945 16.5186 15.3716L8.96302 19.8716C8.67552 20.0428 8.32448 20.0428 8.03698 19.8716L0.48142 15.3716C0.184036 15.1945 0 14.8613 0 14.5V5.5C0 5.13873 0.184036 4.80554 0.48142 4.62842L8.03698 0.128424ZM1.88889 7.20985L7.55556 10.5848V17.2902L1.88889 13.9152V7.20985ZM9.44444 17.2902L15.1111 13.9152V7.20985L9.44444 10.5848V17.2902ZM8.5 8.85265L14.1291 5.5L8.5 2.14735L2.87085 5.5L8.5 8.85265Z" fill="#393939"/>
</svg>
