<svg width="34" height="34" viewBox="0 0 34 34" fill="none" xmlns="http://www.w3.org/2000/svg">
<g clip-path="url(#clip0_1671_150)">
<path fill-rule="evenodd" clip-rule="evenodd" d="M1.7 0C2.63888 0 3.4 0.761116 3.4 1.7V13.502C4.78351 13.3317 5.79743 12.9554 6.58797 12.4994C7.69032 11.8634 8.487 11.0012 9.29752 9.98802C9.43778 9.8127 9.58355 9.62525 9.73525 9.43017C10.3954 8.58117 11.1679 7.58779 12.0867 6.82215C13.3314 5.78485 14.8807 5.1 17 5.1C19.1193 5.1 20.6686 5.78485 21.9133 6.82215C22.8321 7.58779 23.6046 8.58117 24.2648 9.43017C24.4165 9.62525 24.5622 9.8127 24.7025 9.98802C25.513 11.0012 26.3097 11.8634 27.412 12.4994C28.4959 13.1247 29.9996 13.6 32.3 13.6C33.2389 13.6 34 14.3611 34 15.3C34 16.2389 33.2389 17 32.3 17C29.5004 17 27.3916 16.4128 25.713 15.4444C24.0528 14.4866 22.937 13.2238 22.0475 12.112C21.8386 11.8508 21.6476 11.6065 21.4684 11.3773C20.8335 10.565 20.3471 9.94275 19.7367 9.4341C19.0689 8.87765 18.2807 8.5 17 8.5C15.7193 8.5 14.9311 8.87765 14.2633 9.4341C13.6529 9.94275 13.1665 10.565 12.5316 11.3773C12.3524 11.6065 12.1614 11.8508 11.9525 12.112C11.063 13.2238 9.94718 14.4866 8.28703 15.4444C6.96649 16.2062 5.37979 16.7321 3.4 16.9218V30.6H8.5V23.8C8.5 22.8611 9.26112 22.1 10.2 22.1C11.1389 22.1 11.9 22.8611 11.9 23.8V30.6H15.3V18.7C15.3 17.7611 16.0611 17 17 17C17.9389 17 18.7 17.7611 18.7 18.7V30.6H22.1V23.8C22.1 22.8611 22.8611 22.1 23.8 22.1C24.7389 22.1 25.5 22.8611 25.5 23.8V30.6H28.9V27.2C28.9 26.2611 29.6611 25.5 30.6 25.5C31.5389 25.5 32.3 26.2611 32.3 27.2V30.6C33.2389 30.6 34 31.3611 34 32.3C34 33.2389 33.2389 34 32.3 34H1.7C0.761116 34 0 33.2389 0 32.3V1.7C0 0.761116 0.761116 0 1.7 0Z" fill="#2C2B46"/>
</g>
<defs>
<clipPath id="clip0_1671_150">
<rect width="34" height="34" fill="white"/>
</clipPath>
</defs>
</svg>
