<svg width="34" height="34" viewBox="0 0 34 34" fill="none" xmlns="http://www.w3.org/2000/svg">
<path fill-rule="evenodd" clip-rule="evenodd" d="M7.88964 2.53253C8.60736 1.82249 9.77102 1.82249 10.4887 2.53253C11.2065 3.24258 11.2065 4.39379 10.4887 5.10383L5.89414 9.64929C5.17642 10.3593 4.01277 10.3593 3.29505 9.64929L0.53829 6.92201C-0.17943 6.21197 -0.17943 5.06076 0.53829 4.35072C1.25601 3.64067 2.41967 3.64067 3.13739 4.35072L4.59459 5.79234L7.88964 2.53253ZM13.7838 6.54545C13.7838 5.5413 14.6066 4.72727 15.6216 4.72727H32.1622C33.1772 4.72727 34 5.5413 34 6.54545C34 7.54961 33.1772 8.36364 32.1622 8.36364H15.6216C14.6066 8.36364 13.7838 7.54961 13.7838 6.54545ZM10.4887 13.4416C11.2065 14.1517 11.2065 15.3029 10.4887 16.0129L5.89414 20.5584C5.17642 21.2684 4.01277 21.2684 3.29505 20.5584L0.53829 17.8311C-0.17943 17.1211 -0.17943 15.9699 0.53829 15.2598C1.25601 14.5498 2.41967 14.5498 3.13739 15.2598L4.59459 16.7014L7.88964 13.4416C8.60736 12.7316 9.77102 12.7316 10.4887 13.4416ZM13.7838 17.4545C13.7838 16.4504 14.6066 15.6364 15.6216 15.6364H32.1622C33.1772 15.6364 34 16.4504 34 17.4545C34 18.4587 33.1772 19.2727 32.1622 19.2727H15.6216C14.6066 19.2727 13.7838 18.4587 13.7838 17.4545ZM10.4887 24.3507C11.2065 25.0608 11.2065 26.212 10.4887 26.922L5.89414 31.4675C5.17642 32.1775 4.01277 32.1775 3.29505 31.4675L0.53829 28.7402C-0.17943 28.0302 -0.17943 26.8789 0.53829 26.1689C1.25601 25.4589 2.41967 25.4589 3.13739 26.1689L4.59459 27.6105L7.88964 24.3507C8.60736 23.6407 9.77102 23.6407 10.4887 24.3507ZM13.7838 28.3636C13.7838 27.3595 14.6066 26.5455 15.6216 26.5455H32.1622C33.1772 26.5455 34 27.3595 34 28.3636C34 29.3678 33.1772 30.1818 32.1622 30.1818H15.6216C14.6066 30.1818 13.7838 29.3678 13.7838 28.3636Z" fill="#2C2B46"/>
</svg>
