<svg width="70" height="48" viewBox="0 0 70 48" fill="none" xmlns="http://www.w3.org/2000/svg">
<path fill-rule="evenodd" clip-rule="evenodd" d="M35 3.2C35 1.43269 36.4245 0 38.1818 0H44.5455C45.7506 0 46.8524 0.684808 47.3914 1.76892L57.6511 22.4057C60.8893 22.5024 63.9748 23.8384 66.2723 26.149C68.6591 28.5495 70 31.8052 70 35.2C70 38.5948 68.6591 41.8505 66.2723 44.251C63.8854 46.6514 60.6482 48 57.2727 48C53.8972 48 50.66 46.6514 48.2732 44.251C45.8864 41.8505 44.5455 38.5948 44.5455 35.2C44.5455 31.8052 45.8864 28.5495 48.2732 26.149C49.169 25.2481 50.1847 24.4953 51.2824 23.9064L49.5071 20.3355L38.8408 31.0627C38.2441 31.6629 37.4348 32 36.5909 32H25.0504C25.3166 33.0366 25.4545 34.1112 25.4545 35.2C25.4545 38.5948 24.1136 41.8505 21.7268 44.251C19.34 46.6514 16.1028 48 12.7273 48C9.35179 48 6.11456 46.6514 3.72773 44.251C1.34091 41.8505 0 38.5948 0 35.2C0 31.8052 1.34091 28.5495 3.72773 26.149C6.11456 23.7486 9.35179 22.4 12.7273 22.4C15.4092 22.4 18.0039 23.2513 20.1541 24.8052L25.7275 19.2H15.9091C14.1518 19.2 12.7273 17.7673 12.7273 16C12.7273 14.2327 14.1518 12.8 15.9091 12.8H45.7608L42.579 6.4H38.1818C36.4245 6.4 35 4.96731 35 3.2ZM41.6366 19.2H34.727L28.3634 25.6H35.273L41.6366 19.2ZM12.7273 28.8C11.0395 28.8 9.42092 29.4743 8.2275 30.6745C7.03409 31.8747 6.36364 33.5026 6.36364 35.2C6.36364 36.8974 7.03409 38.5253 8.2275 39.7255C9.42092 40.9257 11.0395 41.6 12.7273 41.6C14.415 41.6 16.0336 40.9257 17.227 39.7255C18.4205 38.5253 19.0909 36.8974 19.0909 35.2C19.0909 33.5026 18.4205 31.8747 17.227 30.6745C16.0336 29.4743 14.415 28.8 12.7273 28.8ZM57.2727 28.8C55.585 28.8 53.9664 29.4743 52.773 30.6745C51.5795 31.8747 50.9091 33.5026 50.9091 35.2C50.9091 36.8974 51.5795 38.5253 52.773 39.7255C53.9664 40.9257 55.585 41.6 57.2727 41.6C58.9605 41.6 60.5791 40.9257 61.7725 39.7255C62.9659 38.5253 63.6364 36.8974 63.6364 35.2C63.6364 33.5026 62.9659 31.8747 61.7725 30.6745C60.5791 29.4743 58.9605 28.8 57.2727 28.8Z" fill="#2C2B46"/>
</svg>
