<svg width="34" height="34" viewBox="0 0 34 34" fill="none" xmlns="http://www.w3.org/2000/svg">
<path fill-rule="evenodd" clip-rule="evenodd" d="M3.41005 3.41005C3.95678 2.86332 4.84322 2.86332 5.38995 3.41005L30.59 28.61C31.1367 29.1568 31.1367 30.0432 30.59 30.5899C30.0432 31.1367 29.1568 31.1367 28.61 30.5899L28.1111 30.091C27.9937 30.4045 27.7655 30.6712 27.4606 30.8343C27.0054 31.078 26.453 31.0513 26.0234 30.7649L22.7784 28.6015L20.7899 30.5899C20.2432 31.1367 19.3568 31.1367 18.8101 30.5899L17 28.7799L15.1899 30.5899C14.6432 31.1367 13.7568 31.1367 13.2101 30.5899L11.2216 28.6015L7.97658 30.7649C7.54698 31.0513 6.99462 31.078 6.5394 30.8343C6.08418 30.5907 5.8 30.1163 5.8 29.6V7.7799L3.41005 5.38995C2.86332 4.84322 2.86332 3.95678 3.41005 3.41005ZM8.6 10.5799V26.9841L10.6234 25.6351C11.1787 25.2649 11.9181 25.3382 12.3899 25.81L14.2 27.6201L16.0101 25.81C16.5568 25.2633 17.4432 25.2633 17.9899 25.81L19.8 27.6201L21.6101 25.81C22.0819 25.3382 22.8213 25.2649 23.3766 25.6351L24.2125 26.1924L20.6201 22.6H18.4C17.6268 22.6 17 21.9732 17 21.2C17 20.5997 17.3779 20.0876 17.9087 19.8886L15.0201 17H12.8C12.0268 17 11.4 16.3732 11.4 15.6C11.4 14.9997 11.7779 14.4876 12.3087 14.2886L8.6 10.5799ZM8.6 4.4C8.6 3.6268 9.2268 3 10 3H24C25.1139 3 26.1822 3.4425 26.9698 4.23015C27.7575 5.0178 28.2 6.08609 28.2 7.2V21.2C28.2 21.9732 27.5732 22.6 26.8 22.6C26.0268 22.6 25.4 21.9732 25.4 21.2V7.2C25.4 6.8287 25.2525 6.4726 24.9899 6.21005C24.7274 5.9475 24.3713 5.8 24 5.8H10C9.2268 5.8 8.6 5.1732 8.6 4.4ZM14.2 10C14.2 9.2268 14.8268 8.6 15.6 8.6H21.2C21.9732 8.6 22.6 9.2268 22.6 10C22.6 10.7732 21.9732 11.4 21.2 11.4H15.6C14.8268 11.4 14.2 10.7732 14.2 10ZM19.8 15.614V15.6C19.8 14.8268 20.4268 14.2 21.2 14.2C21.9732 14.2 22.6 14.8268 22.6 15.6V15.614C22.6 16.3872 21.9732 17.014 21.2 17.014C20.4268 17.014 19.8 16.3872 19.8 15.614Z" fill="#2C2B46"/>
</svg>
