<svg width="34" height="34" viewBox="0 0 34 34" fill="none" xmlns="http://www.w3.org/2000/svg">
<path fill-rule="evenodd" clip-rule="evenodd" d="M10.125 5.8C9.76033 5.8 9.41059 5.9475 9.15273 6.21005C8.89487 6.4726 8.75 6.8287 8.75 7.2V26.9841L10.7373 25.6351C11.2826 25.2649 12.0088 25.3382 12.4723 25.81L14.25 27.6201L16.0277 25.81C16.5647 25.2633 17.4353 25.2633 17.9723 25.81L19.75 27.6201L21.5277 25.81C21.9912 25.3382 22.7174 25.2649 23.2627 25.6351L25.25 26.9841V7.2C25.25 6.8287 25.1051 6.4726 24.8473 6.21005C24.5894 5.9475 24.2397 5.8 23.875 5.8H10.125ZM7.20818 4.23015C7.98177 3.4425 9.03098 3 10.125 3H23.875C24.969 3 26.0182 3.4425 26.7918 4.23015C27.5654 5.0178 28 6.08609 28 7.2V29.6C28 30.1163 27.7209 30.5907 27.2738 30.8343C26.8267 31.078 26.2842 31.0513 25.8623 30.7649L22.6752 28.6015L20.7223 30.5899C20.1853 31.1367 19.3147 31.1367 18.7777 30.5899L17 28.7799L15.2223 30.5899C14.6853 31.1367 13.8147 31.1367 13.2777 30.5899L11.3248 28.6015L8.13771 30.7649C7.71579 31.0513 7.17329 31.078 6.7262 30.8343C6.2791 30.5907 6 30.1163 6 29.6V7.2C6 6.08609 6.4346 5.0178 7.20818 4.23015ZM11.5 10C11.5 9.2268 12.1156 8.6 12.875 8.6H21.125C21.8844 8.6 22.5 9.2268 22.5 10C22.5 10.7732 21.8844 11.4 21.125 11.4H12.875C12.1156 11.4 11.5 10.7732 11.5 10ZM11.5 15.6C11.5 14.8268 12.1156 14.2 12.875 14.2H21.125C21.8844 14.2 22.5 14.8268 22.5 15.6C22.5 16.3732 21.8844 17 21.125 17H12.875C12.1156 17 11.5 16.3732 11.5 15.6ZM17 21.2C17 20.4268 17.6156 19.8 18.375 19.8H21.125C21.8844 19.8 22.5 20.4268 22.5 21.2C22.5 21.9732 21.8844 22.6 21.125 22.6H18.375C17.6156 22.6 17 21.9732 17 21.2Z" fill="#2C2B46"/>
</svg>
